M48
INCH
T01C0.0200
T02C0.0150
T03C0.0400
T04C0.0650
T05C0.1574
T06C0.0600
%
T01
X+015399Y-016745
X+015391Y-017203
X+020600Y-016750
X+020600Y-017200
X+019912Y+000298
X+016000Y+000294
X-014366Y-005572
X-011220Y-005572
T02
X+019912Y+000323
X+016250Y+000294
X-014377Y-005562
T03
X+000299Y-015150
X+004299Y-015150
X+009599Y-017150
X+008599Y-017150
X+007599Y-017150
X+001049Y-013400
X+001049Y-012400
X+001049Y-011400
X+001049Y-010400
X+001049Y-009400
X+001049Y-008400
X+001049Y-007400
X-001950Y-007400
X-001950Y-008400
X-001950Y-009400
X-001950Y-010400
X-001950Y-011400
X-001950Y-012400
X-001950Y-013400
X+004299Y-009400
X+008299Y-009400
X+004299Y-011400
X+008299Y-011400
X+004299Y-012400
X+008299Y-012400
X+002049Y-012400
X+002049Y-008400
X+008299Y-010400
X+004299Y-010400
X+005049Y-006250
X+001049Y-006250
X+006049Y-007400
X+010049Y-007400
X+009599Y-014650
X+008599Y-014650
X+007599Y-014650
X+012699Y-011400
X+012699Y-007400
X+010649Y-009300
X+010649Y-011300
X-001950Y-006245
X-005950Y-006245
X-002950Y-008400
X-002950Y-012400
X-001450Y-015145
X-005450Y-015145
X-005200Y-012495
X-009200Y-012495
X-010450Y-006745
X-009450Y-006745
X-008450Y-006745
X-012700Y-017495
X-012700Y-013495
X-005200Y-013495
X-009200Y-013495
X-010700Y-015500
X-010700Y-017500
X-005200Y-010495
X-009200Y-010495
X-009200Y-011495
X-005200Y-011495
X-005200Y-009495
X-009200Y-009495
X-010450Y-004495
X-009450Y-004495
X-008450Y-004495
X+032000Y-000850
X+032000Y-004850
X+032000Y-016600
X+032000Y-017600
X-015450Y-001050
X-015450Y-005050
X-015450Y-016650
X-015450Y-017650
X+017799Y-015150
X+021799Y-015150
X+027099Y-017150
X+026099Y-017150
X+025099Y-017150
X+018549Y-013400
X+018549Y-012400
X+018549Y-011400
X+018549Y-010400
X+018549Y-009400
X+018549Y-008400
X+018549Y-007400
X+015549Y-007400
X+015549Y-008400
X+015549Y-009400
X+015549Y-010400
X+015549Y-011400
X+015549Y-012400
X+015549Y-013400
X+021799Y-009400
X+025799Y-009400
X+021799Y-011400
X+025799Y-011400
X+021799Y-012400
X+025799Y-012400
X+019549Y-012400
X+019549Y-008400
X+025799Y-010400
X+021799Y-010400
X+022549Y-006250
X+018549Y-006250
X+023549Y-007400
X+027549Y-007400
X+027099Y-014650
X+026099Y-014650
X+025099Y-014650
X+030199Y-011400
X+030199Y-007400
X+028149Y-009300
X+028149Y-011300
X-007000Y+006950
X-006000Y+006950
X-005000Y+006950
X-004000Y+006950
X-003000Y+006950
X-007015Y+003410
X-006015Y+003410
X-005015Y+003410
X-004015Y+003410
X-003015Y+003410
X+005750Y+006994
X+006750Y+006994
X+007750Y+006994
X+008750Y+006994
X+009750Y+006994
X+005734Y+003454
X+006734Y+003454
X+007734Y+003454
X+008734Y+003454
X+009734Y+003454
X+018500Y+007000
X+019500Y+007000
X+020500Y+007000
X+021500Y+007000
X+022500Y+007000
X+018484Y+003460
X+019484Y+003460
X+020484Y+003460
X+021484Y+003460
X+022484Y+003460
T04
X+015058Y-020500
X+013058Y-020500
X+011058Y-020500
X+004754Y-020500
X+002754Y-020500
X+000754Y-020500
X+006904Y-020500
X+008904Y-020500
X-004000Y+012000
X-006000Y+012000
X+009000Y+012000
X+007000Y+012000
X+022500Y+012000
X+020500Y+012000
T05
X+032000Y-020500
X+032250Y+013000
X-016250Y+013000
X-015950Y-020400
T06
X-005000Y-001050
X-002000Y-001050
X-008000Y-001050
X+007750Y-001005
X+010750Y-001005
X+004750Y-001005
X+020500Y-001000
X+023500Y-001000
X+017500Y-001000
M30
