M48
INCH
T01C0.0150
T02C0.0300
T03C0.0400
T04C0.0600
T05C0.0650
T06C0.0500
T07C0.1574
%
T01
X+013829Y-026283
X+016850Y-023244
X+016850Y-025527
X-039173Y-006496
X+015077Y-006161
X+009698Y+001280
X+009680Y-001053
X-030719Y+001323
T02
X+013820Y-023250
X+016854Y-023239
X+016850Y-025526
X+013820Y-026274
X+012548Y-006161
X+015087Y-006172
X-012007Y-006040
X-014642Y-006040
X-039145Y-006468
X-041652Y-006496
X+015354Y-020669
X+019094Y-020669
X+015139Y-003583
X+012565Y-003583
X-030717Y+001320
X-030717Y-000817
X-017500Y+001200
X-017492Y-000769
X-003535Y+001279
X-003517Y-000753
X+009698Y+001300
X+009698Y-001035
X+036600Y+001300
X+036620Y-001092
X+029000Y-002400
X+028935Y-004376
T03
X-009943Y+006635
X-008943Y+006635
X-007943Y+006635
X-006943Y+006635
X-005943Y+006635
X-009959Y+003096
X-008959Y+003096
X-007959Y+003096
X-006959Y+003096
X-005959Y+003096
X-000943Y-015614
X+003056Y-015614
X+008606Y-017614
X+007606Y-017614
X+006606Y-017614
X+000056Y-013864
X+000056Y-012864
X+000056Y-011864
X+000056Y-010864
X+000056Y-009864
X+000056Y-008864
X+000056Y-007864
X-002943Y-007864
X-002943Y-008864
X-002943Y-009864
X-002943Y-010864
X-002943Y-011864
X-002943Y-012864
X-002943Y-013864
X+003306Y-009864
X+007306Y-009864
X+003306Y-011864
X+007306Y-011864
X+003306Y-012864
X+007306Y-012864
X+001056Y-012864
X+001056Y-008864
X+007306Y-010864
X+003306Y-010864
X+004056Y-006714
X+000056Y-006714
X+005056Y-007864
X+009056Y-007864
X+008606Y-015114
X+007606Y-015114
X+006606Y-015114
X+011706Y-011864
X+011706Y-007864
X+009656Y-009764
X+009656Y-011764
X-002943Y-006709
X-006943Y-006709
X-003943Y-008864
X-003943Y-012864
X-002193Y-015609
X-006193Y-015609
X-006193Y-012959
X-010193Y-012959
X-011443Y-004959
X-010443Y-004959
X-009443Y-004959
X-013693Y-017959
X-013693Y-013959
X-006193Y-013959
X-010193Y-013959
X-011693Y-015964
X-011693Y-017964
X-006193Y-010959
X-010193Y-010959
X-010193Y-011959
X-006193Y-011959
X-006193Y-009959
X-010193Y-009959
X-011443Y-007459
X-010443Y-007459
X-009443Y-007459
X+017066Y+006641
X+018066Y+006641
X+019066Y+006641
X+020066Y+006641
X+021066Y+006641
X+017050Y+003101
X+018050Y+003101
X+019050Y+003101
X+020050Y+003101
X+021050Y+003101
X+026316Y-015608
X+030316Y-015608
X+035616Y-017608
X+034616Y-017608
X+033616Y-017608
X+027066Y-013858
X+027066Y-012858
X+027066Y-011858
X+027066Y-010858
X+027066Y-009858
X+027066Y-008858
X+027066Y-007858
X+024066Y-007858
X+024066Y-008858
X+024066Y-009858
X+024066Y-010858
X+024066Y-011858
X+024066Y-012858
X+024066Y-013858
X+030316Y-009858
X+034316Y-009858
X+030316Y-011858
X+034316Y-011858
X+030316Y-012858
X+034316Y-012858
X+028066Y-012858
X+028066Y-008858
X+034316Y-010858
X+030316Y-010858
X+031066Y-006708
X+027066Y-006708
X+032066Y-007858
X+036066Y-007858
X+035616Y-015108
X+034616Y-015108
X+033616Y-015108
X+038716Y-011858
X+038716Y-007858
X+036666Y-009758
X+036666Y-011758
X+024066Y-006704
X+020066Y-006704
X+023066Y-008858
X+023066Y-012858
X+024566Y-015604
X+020566Y-015604
X+020816Y-012954
X+016816Y-012954
X+015566Y-004954
X+016566Y-004954
X+017566Y-004954
X+013316Y-017954
X+013316Y-013954
X+020816Y-013954
X+016816Y-013954
X+015316Y-015958
X+015316Y-017958
X+020816Y-010954
X+016816Y-010954
X+016816Y-011954
X+020816Y-011954
X+020816Y-009954
X+016816Y-009954
X+015566Y-007454
X+016566Y-007454
X+017566Y-007454
X+041066Y-001358
X+041066Y-005358
X+041066Y-017108
X+041066Y-018108
X-037099Y+006751
X-036099Y+006751
X-035099Y+006751
X-034099Y+006751
X-033099Y+006751
X-037115Y+003212
X-036115Y+003212
X-035115Y+003212
X-034115Y+003212
X-033115Y+003212
X-027743Y-015614
X-023743Y-015614
X-018443Y-017614
X-019443Y-017614
X-020443Y-017614
X-026993Y-013864
X-026993Y-012864
X-026993Y-011864
X-026993Y-010864
X-026993Y-009864
X-026993Y-008864
X-026993Y-007864
X-029993Y-007864
X-029993Y-008864
X-029993Y-009864
X-029993Y-010864
X-029993Y-011864
X-029993Y-012864
X-029993Y-013864
X-023743Y-009864
X-019743Y-009864
X-023743Y-011864
X-019743Y-011864
X-023743Y-012864
X-019743Y-012864
X-025993Y-012864
X-025993Y-008864
X-019743Y-010864
X-023743Y-010864
X-022993Y-006714
X-026993Y-006714
X-021993Y-007864
X-017993Y-007864
X-018443Y-015114
X-019443Y-015114
X-020443Y-015114
X-015243Y-011864
X-015243Y-007864
X-017393Y-009764
X-017393Y-011764
X-029993Y-006709
X-033993Y-006709
X-030993Y-008864
X-030993Y-012864
X-029493Y-015609
X-033493Y-015609
X-033243Y-012959
X-037243Y-012959
X-038493Y-004959
X-037493Y-004959
X-036493Y-004959
X-040743Y-017959
X-040743Y-013959
X-033243Y-013959
X-037243Y-013959
X-038743Y-015964
X-038743Y-017964
X-033243Y-010959
X-037243Y-010959
X-037243Y-011959
X-033243Y-011959
X-033243Y-009959
X-037243Y-009959
X-038493Y-007459
X-037493Y-007459
X-036493Y-007459
X-042700Y-001400
X-042700Y-005400
X-042700Y-017000
X-042700Y-018000
X+001500Y+009650
X+000500Y+009650
X+001500Y+012000
X+000500Y+012000
X-025500Y+012000
X-026500Y+012000
X-025500Y+009650
X-026500Y+009650
X+028500Y+009650
X+027500Y+009650
X+028500Y+012000
X+027500Y+012000
T04
X-007943Y-001364
X-004943Y-001364
X-010943Y-001364
X+002056Y-001364
X+008056Y-001364
X+005056Y-001364
X+002056Y+006635
X+008056Y+006635
X+019066Y-001358
X+022066Y-001358
X+016066Y-001358
X+029066Y-001358
X+035066Y-001358
X+032066Y-001358
X+029066Y+006641
X+035066Y+006641
X-035099Y-001248
X-032099Y-001248
X-038099Y-001248
X-024993Y-001364
X-018993Y-001364
X-021993Y-001364
X-024993Y+006635
X-018993Y+006635
T05
X-009943Y+011635
X-007943Y+011635
X-005943Y+011635
X+006227Y-021914
X+008227Y-021914
X+010227Y-021914
X-002093Y-021914
X-004093Y-021914
X-006093Y-021914
X+017066Y+011641
X+019066Y+011641
X+021066Y+011641
X+004116Y-021908
X+002116Y-021908
X+000116Y-021908
X-037043Y+011635
X-035043Y+011635
X-033043Y+011635
X-008243Y-021914
X-010243Y-021914
X-012243Y-021914
T06
X+011806Y+009635
X+002806Y+009635
X+011800Y+012000
X+002800Y+012000
X-015250Y+012000
X-024250Y+012000
X-015250Y+009650
X-024250Y+009650
X+038750Y+009650
X+029750Y+009650
X+038750Y+012000
X+029750Y+012000
T07
X+041000Y-025500
X+041000Y+012500
X-043000Y+012500
X-043000Y-025500
M30
