M48
INCH
T01C0.0400
T02C0.0500
T03C0.1574
%
T01
X-015933Y+013434
X-013933Y+011434
X-015933Y+011434
X-013933Y+013434
X-009933Y+017684
X-009933Y+014684
X-009883Y+010184
X-009883Y+007184
X+007350Y+014684
X+007350Y+012684
X+009350Y+013684
X+007350Y+008184
X+007350Y+006184
X+009350Y+007184
X-002581Y+017684
X-002581Y+013684
X-002581Y+011184
X-002581Y+007184
X+002100Y+014934
X+002100Y+015934
X+002100Y+016934
X+002100Y+008434
X+002100Y+009434
X+002100Y+010434
X+012850Y+018184
X+012850Y+016184
X+012850Y+008184
X+012850Y+010184
X+005350Y+015934
X+005350Y+017934
X+005350Y+011434
X+005350Y+009434
X-003831Y+017684
X-003831Y+013684
X-001331Y+013684
X-001331Y+017684
X-003831Y+007184
X-003831Y+011184
X-001331Y+011184
X-001331Y+007184
X+004100Y+014184
X+004100Y+012934
X+004100Y+006684
X+004100Y+007934
X+015600Y+018184
X+015600Y+014184
X+012850Y+013434
X+011850Y+013434
X+015600Y+010184
X+015600Y+006184
X+012850Y+005434
X+011850Y+005434
X+018500Y+003400
X+018500Y+002400
X-015933Y-005565
X-013933Y-007565
X-015933Y-007565
X-013933Y-005565
X-009898Y-001456
X-009898Y-004456
X-009883Y-008815
X-009883Y-011815
X+007350Y-004315
X+007350Y-006315
X+009350Y-005315
X+007350Y-010815
X+007350Y-012815
X+009350Y-011815
X-002581Y-001315
X-002581Y-005315
X-002581Y-007815
X-002581Y-011815
X+002100Y-004065
X+002100Y-003065
X+002100Y-002065
X+002100Y-010565
X+002100Y-009565
X+002100Y-008565
X+012850Y-000815
X+012850Y-002815
X+012850Y-010815
X+012850Y-008815
X+005350Y-003065
X+005350Y-001065
X+005350Y-007565
X+005350Y-009565
X-003831Y-001315
X-003831Y-005315
X-001331Y-005315
X-001331Y-001315
X-003831Y-011815
X-003831Y-007815
X-001331Y-007815
X-001331Y-011815
X+004100Y-004815
X+004100Y-006065
X+004100Y-012315
X+004100Y-011065
X+015600Y-000815
X+015600Y-004815
X+012850Y-005565
X+011850Y-005565
X+015600Y-008815
X+015600Y-012815
X+012850Y-013565
X+011850Y-013565
X+018500Y-015550
X+018500Y-016550
X-015933Y-024315
X-013933Y-026315
X-015933Y-026315
X-013933Y-024315
X-009898Y-020206
X-009898Y-023206
X-009883Y-027565
X-009883Y-030565
X+007350Y-023065
X+007350Y-025065
X+009350Y-024065
X+007350Y-029565
X+007350Y-031565
X+009350Y-030565
X-002581Y-020065
X-002581Y-024065
X-002581Y-026565
X-002581Y-030565
X+002100Y-022815
X+002100Y-021815
X+002100Y-020815
X+002100Y-029315
X+002100Y-028315
X+002100Y-027315
X+012850Y-019565
X+012850Y-021565
X+012850Y-029565
X+012850Y-027565
X+005350Y-021815
X+005350Y-019815
X+005350Y-026315
X+005350Y-028315
X-003831Y-020065
X-003831Y-024065
X-001331Y-024065
X-001331Y-020065
X-003831Y-030565
X-003831Y-026565
X-001331Y-026565
X-001331Y-030565
X+004100Y-023565
X+004100Y-024815
X+004100Y-031065
X+004100Y-029815
X+015600Y-019565
X+015600Y-023565
X+012850Y-024315
X+011850Y-024315
X+015600Y-027565
X+015600Y-031565
X+012850Y-032315
X+011850Y-032315
X+018500Y+005500
X+018500Y+006500
X+018500Y-013500
X+018500Y-012500
X+018500Y-019647
X+018500Y-018647
T02
X+018020Y+013955
X+018020Y+011955
X+018020Y+009955
X-019618Y+010500
X-019618Y+012500
X-019618Y+014500
X+018020Y-005044
X+018020Y-007044
X+018020Y-009044
X-019618Y-008500
X-019618Y-006500
X-019618Y-004500
X+018020Y-023794
X+018020Y-025794
X+018020Y-027794
X-019618Y-027250
X-019618Y-025250
X-019618Y-023250
T03
X-020500Y-032000
X+018250Y-032000
X+018250Y+019000
X-020500Y+019000
M30
